<svg width="41" height="49" viewBox="0 0 41 49" fill="none" xmlns="http://www.w3.org/2000/svg">
<path d="M0 4.30034C0 4.30034 14.5909 -5.69511e-06 21.8191 0C29.0472 5.69511e-06 40.9444 4.21075 40.9444 4.21075L39.5078 13.4386C39.5078 13.4386 29.1031 5.4524 21.8191 5.5994C15.59 5.72511 6.95876 7.12243 6.28533 9.2278C5.6119 11.3332 6.5547 14.2414 7.76687 15.5439C8.97904 16.8464 15.2824 16.8878 21.8191 16.8878C31.1124 16.8878 38.2058 21.8153 38.2058 21.8153L37.3977 30.8639L36.5447 41.5699L21.8191 48.0652L5.56701 41.5699L4.22015 30.8639C4.22015 30.8639 14.3961 39.3302 21.8191 39.3302C28.1493 39.3302 30.4518 38.7713 32.2797 34.2235C39.2833 16.7982 4.13036 24.8165 2.96308 20.337C1.79581 15.8575 0.9428 9.2278 0.9428 9.2278L0 4.30034Z" fill="#1F75F9"/>
</svg>
